<svg width="140" height="24" fill="none" xmlns="http://www.w3.org/2000/svg"><g clip-path="url('#clip0_0_31')"><path fill-rule="evenodd" clip-rule="evenodd" d="m45.002 5 6.287 12.557-.79 1.563L43.168 5h1.833Zm20.385 0-7.27 14.12L50.46 5h1.774l5.882 11.051a178.757 178.757 0 0 0 2.131-4.217c.38-.778.756-1.547 1.129-2.306.372-.76.71-1.453 1.012-2.08.302-.628.556-1.162.762-1.6.206-.44.34-.722.405-.848h1.832Zm13.875 1.374V5h-9.335v14.138h9.335v-1.374h-7.907v-4.989h6.596v-1.374h-6.596V6.374h7.907Zm4.155 12.764V5h1.427v12.764h7.907v1.374h-9.334ZM96.906 5v14.138h6.923c.103 0 .332-.034.685-.103.354-.07.736-.223 1.148-.461.193-.113.395-.26.607-.443.212-.182.402-.404.569-.668a3.85 3.85 0 0 0 .415-.932c.109-.358.164-.775.164-1.252 0-.54-.071-1.01-.212-1.412a3.817 3.817 0 0 0-.54-1.035 2.868 2.868 0 0 0-.743-.697 4.144 4.144 0 0 0-.839-.414c.283-.276.527-.656.733-1.139.206-.483.308-1.064.308-1.741 0-.502-.054-.935-.163-1.3a3.815 3.815 0 0 0-.415-.94 2.912 2.912 0 0 0-.559-.66 3.728 3.728 0 0 0-1.225-.725 4.01 4.01 0 0 0-.54-.15 3.177 3.177 0 0 0-.569-.066h-5.747Zm6.885 12.764c.051 0 .193-.022.424-.066.232-.044.479-.147.743-.31.263-.164.498-.411.704-.744.205-.333.308-.788.308-1.365s-.103-1.032-.308-1.365c-.206-.332-.441-.583-.704-.753a2.132 2.132 0 0 0-.752-.32 3.745 3.745 0 0 0-.434-.066h-5.439v4.99h5.458Zm-.723-6.438c-.225.05-.364.075-.415.075h-4.32V6.374h4.32c.026 0 .148.02.366.057.219.037.457.135.714.292.257.156.492.401.704.734.212.332.318.794.318 1.384 0 .577-.099 1.035-.299 1.374-.199.339-.424.596-.675.772-.25.175-.488.288-.713.339ZM121.639 5v1.374h-7.908v5.027h6.596v1.374h-6.596v4.99h7.908v1.373h-9.335V5h9.335Zm10.692 8.114 4.822 6.024h1.89l-5.612-7.078L139.043 5h-1.89l-4.822 6.024L127.78 5h-2.141l5.612 7.06-5.612 7.078h2.141l4.551-6.024Z" fill="#E4E5EA"/></g><g clip-path="url('#clip1_0_31')"><path fill-rule="evenodd" clip-rule="evenodd" d="M24.595 0H0v12.784h1.32V1.29h21.954v4.238h-2.19v.01h-.016c-.058.114-.182.373-.37.774-.188.402-.42.89-.697 1.463-.276.574-.585 1.208-.926 1.902a790.01 790.01 0 0 0-1.032 2.109 160.12 160.12 0 0 1-1.95 3.856L10.715 5.536H9.092l7.002 12.909 6.007-11.66h2.492v-.014h.002V0ZM0 17.196h.006v-.014H8.47L2.424 5.537H4.1l5.75 11.48-.723 1.429-.011-.021v.015H1.32v4.271h21.953V11.184h1.32V24H0v-6.804ZM33.695 24V0h1.357v24h-1.357Z" fill="#E4E5EA"/></g><defs><clipPath id="clip0_0_31"><path fill="#fff" transform="translate(43 5)" d="M0 0h97v15H0z"/></clipPath><clipPath id="clip1_0_31"><path fill="#fff" d="M0 0h35v24H0z"/></clipPath></defs></svg>