<svg width="24" height="24" fill="none" xmlns="http://www.w3.org/2000/svg"><path d="M12.968 3c-.357 0-.645.274-.645.613 0 .338.288.613.645.613 4.276 0 7.742 3.293 7.742 7.355 0 .338.288.613.645.613.356 0 .645-.275.645-.613C22 6.84 17.956 3 12.968 3ZM4.71 5c.365-.179 1.009-.27 1.378.057a14.988 14.988 0 0 1 1.661 1.75c.489.624 1.173 1.575 1.27 1.787.098.211.207.96-.282 1.413a6.61 6.61 0 0 1-1.107.797 1.03 1.03 0 0 0-.228 1.23c.347.75 1.097 2.22 2.389 3.316 1.292 1.095 2.66 1.672 3.518 1.854.054 0 .124.013.206.027.29.052.723.128 1.097-.248.382-.384.73-.788.857-.941a1.477 1.477 0 0 1 1.499-.308c.901.308 1.933.98 2.4 1.298.373.253 1.205.855 1.574 1.124.224.163.6.65.304 1.288-.37.797-1.944 2.556-3.355 2.556-.521 0-5.56-1.355-10.011-5.18-2.844-2.443-5.292-6.682-5.712-8.11-.159-.34-.347-1.177.174-1.808C2.863 6.272 3.45 5.615 4.71 5ZM12.968 7.903c-.357 0-.645.275-.645.613 0 .339.288.613.645.613 1.425 0 2.58 1.098 2.58 2.452 0 .338.29.613.646.613.356 0 .645-.275.645-.613 0-2.031-1.733-3.678-3.871-3.678Z" fill="#E4E5EA"/><path d="M12.323 6.065c0-.339.288-.613.645-.613 3.563 0 6.451 2.744 6.451 6.129 0 .338-.288.613-.645.613-.356 0-.645-.275-.645-.613 0-2.708-2.31-4.904-5.161-4.904-.357 0-.645-.274-.645-.612Z" fill="#E4E5EA"/></svg>