<svg width="24" height="24" fill="none" xmlns="http://www.w3.org/2000/svg"><path fill-rule="evenodd" clip-rule="evenodd" d="M18.802 5.191a9.5 9.5 0 0 0-3.1-2.07 9.538 9.538 0 0 0-3.662-.72c-5.269 0-9.558 4.267-9.56 9.514 0 1.676.44 3.313 1.276 4.756L2.4 21.601l5.068-1.324a9.6 9.6 0 0 0 4.568 1.158h.005c5.267 0 9.557-4.268 9.559-9.514a9.422 9.422 0 0 0-2.798-6.73Zm-6.761 14.638h-.004c-1.423 0-2.82-.38-4.044-1.103l-.29-.172-3.007.786.802-2.918-.189-.299a7.866 7.866 0 0 1-1.215-4.208c.002-4.36 3.567-7.908 7.95-7.908a7.927 7.927 0 0 1 5.617 2.32 7.83 7.83 0 0 1 2.325 5.595c-.003 4.36-3.567 7.907-7.946 7.907Zm4.358-5.923c-.24-.12-1.413-.694-1.632-.774-.219-.08-.377-.118-.537.119-.16.237-.618.773-.757.932-.14.159-.28.178-.518.059s-1.008-.37-1.92-1.18c-.711-.63-1.19-1.408-1.33-1.647-.14-.238-.015-.366.106-.485.107-.106.238-.278.357-.416.12-.14.16-.238.239-.397.08-.159.04-.298-.02-.416-.06-.12-.538-1.29-.737-1.766-.193-.461-.39-.4-.537-.406a10.34 10.34 0 0 0-.457-.009.883.883 0 0 0-.638.297c-.219.239-.836.813-.836 1.983 0 1.17.857 2.301.976 2.46.12.159 1.685 2.56 4.08 3.59.571.245 1.016.39 1.363.501.571.181 1.092.155 1.504.094.46-.067 1.413-.574 1.613-1.13.199-.555.199-1.03.139-1.13-.06-.1-.22-.16-.458-.279Z" fill="#E4E5EA"/></svg>