<svg width="132" height="22" fill="none" xmlns="http://www.w3.org/2000/svg"><path d="M3.93 8 1.69 5.39l.42-.24L4.53 8h-.6ZM.08 8V2.78h.5V8h-.5Zm.34-2.42v-.43h1.64v.43H.42Zm1.72-.14-.46-.08 2.14-2.58h.55L2.14 5.44Zm6.254 2.6c-.46 0-.877-.107-1.25-.32a2.36 2.36 0 0 1-.88-.91c-.214-.4-.32-.873-.32-1.42 0-.547.106-1.017.32-1.41.22-.4.513-.707.88-.92.373-.213.79-.32 1.25-.32.493 0 .933.113 1.32.34.393.22.7.53.92.93.226.4.34.86.34 1.38 0 .52-.114.98-.34 1.38-.22.4-.527.713-.92.94-.387.22-.827.33-1.32.33Zm-2.62 1.9V2.78h.48v1.71l-.08.91.1.91v3.63h-.5Zm2.59-2.35c.4 0 .76-.09 1.08-.27.32-.187.57-.447.75-.78.186-.333.28-.717.28-1.15 0-.44-.094-.823-.28-1.15-.18-.333-.43-.59-.75-.77-.32-.187-.68-.28-1.08-.28s-.76.093-1.08.28c-.314.18-.564.437-.75.77-.18.327-.27.71-.27 1.15 0 .433.09.817.27 1.15.186.333.436.593.75.78.32.18.68.27 1.08.27Zm4.029 2.39c-.24 0-.467-.04-.68-.12a1.445 1.445 0 0 1-.53-.35l.25-.38c.133.14.277.243.43.31.16.067.34.1.54.1.24 0 .45-.067.63-.2.187-.133.36-.377.52-.73l.36-.8.07-.09 2.21-4.94h.51l-2.68 5.93c-.14.32-.293.57-.46.75-.16.187-.337.32-.53.4-.193.08-.407.12-.64.12Zm1.51-1.85-2.42-5.35h.53l2.2 4.91-.31.44ZM17.912 8V2.78h4.56V8h-.5V3.08l.14.15h-3.84l.14-.15V8h-.5Zm6.719 0V2.78h.5v2.38h3.54V2.78h.5V8h-.5V5.6h-3.54V8h-.5ZM36.34 8V2.78h.5V8h-.5Zm-2.95-3.32c.653.007 1.147.15 1.48.43.34.273.51.677.51 1.21 0 .553-.18.977-.54 1.27-.36.293-.88.437-1.56.43L31.33 8V2.78h.5v1.88l1.56.02Zm-.13 2.94c.533.007.937-.1 1.21-.32.273-.22.41-.547.41-.98 0-.42-.137-.733-.41-.94-.267-.207-.67-.313-1.21-.32l-1.43-.01V7.6l1.43.02Zm5.726.38V2.78h.5v4.45l3.72-4.45h.44V8h-.5V3.55L39.426 8h-.44Zm2.31-6.02c-.406 0-.743-.107-1.01-.32-.26-.22-.396-.523-.41-.91h.37c.014.273.117.49.31.65.2.16.447.24.74.24.294 0 .537-.08.73-.24.2-.16.304-.377.31-.65h.38c-.006.387-.143.69-.41.91-.26.213-.596.32-1.01.32ZM48.371 8V2.78h.5v4.45l3.72-4.45h.44V8h-.5V3.55L48.811 8h-.44Zm6.816 0V2.78h.5v2.38h3.54V2.78h.5V8h-.5V5.6h-3.54V8h-.5Zm7.65 0V3.08l.14.15h-2.18v-.45h4.58v.45h-2.18l.14-.15V8h-.5Zm5.526.04c-.527 0-.993-.113-1.4-.34-.4-.227-.717-.54-.95-.94a2.73 2.73 0 0 1-.34-1.37c0-.52.107-.977.32-1.37.22-.4.52-.713.9-.94a2.45 2.45 0 0 1 1.28-.34c.473 0 .897.11 1.27.33.38.22.677.53.89.93.22.393.33.85.33 1.37 0 .02-.003.043-.01.07v.07h-4.61v-.39h4.34l-.2.19c.007-.407-.08-.77-.26-1.09a1.927 1.927 0 0 0-1.75-1.04 1.96 1.96 0 0 0-1.04.28c-.3.18-.537.433-.71.76-.173.32-.26.687-.26 1.1v.09c0 .427.093.807.28 1.14.193.327.457.583.79.77.333.18.713.27 1.14.27.333 0 .643-.06.93-.18.293-.12.54-.303.74-.55l.29.33c-.227.28-.513.493-.86.64-.34.14-.71.21-1.11.21ZM72.297 8V2.78h3.57v.45h-3.21l.14-.14V8h-.5Zm7.269.04c-.46 0-.877-.107-1.25-.32a2.36 2.36 0 0 1-.88-.91c-.214-.4-.32-.873-.32-1.42 0-.547.106-1.017.32-1.41.22-.4.513-.707.88-.92.373-.213.79-.32 1.25-.32.493 0 .933.113 1.32.34.393.22.7.53.92.93.226.4.34.86.34 1.38 0 .52-.114.98-.34 1.38-.22.4-.527.713-.92.94-.387.22-.827.33-1.32.33Zm-2.62 1.9V2.78h.48v1.71l-.08.91.1.91v3.63h-.5Zm2.59-2.35c.4 0 .76-.09 1.08-.27.32-.187.57-.447.75-.78.186-.333.28-.717.28-1.15 0-.44-.094-.823-.28-1.15-.18-.333-.43-.59-.75-.77-.32-.187-.68-.28-1.08-.28s-.76.093-1.08.28c-.314.18-.564.437-.75.77-.18.327-.27.71-.27 1.15 0 .433.09.817.27 1.15.186.333.436.593.75.78.32.18.68.27 1.08.27Zm7.476.41V6.81l-.02-.18V4.67c0-.487-.133-.857-.4-1.11-.26-.253-.644-.38-1.15-.38-.36 0-.697.063-1.01.19-.307.12-.57.277-.79.47l-.25-.36c.26-.233.573-.413.94-.54.367-.133.75-.2 1.15-.2.647 0 1.143.163 1.49.49.347.327.52.813.52 1.46V8h-.48Zm-1.88.04c-.387 0-.724-.06-1.01-.18a1.516 1.516 0 0 1-.65-.53 1.404 1.404 0 0 1-.22-.78c0-.267.06-.507.18-.72.126-.22.333-.397.62-.53.286-.14.67-.21 1.15-.21h1.92v.39h-1.91c-.54 0-.92.1-1.14.3-.213.2-.32.45-.32.75 0 .333.127.6.38.8.253.2.61.3 1.07.3.44 0 .81-.1 1.11-.3.306-.2.533-.49.68-.87l.14.34c-.14.38-.38.683-.72.91-.334.22-.76.33-1.28.33ZM90.473 8V3.08l.14.15h-2.18v-.45h4.58v.45h-2.18l.14-.15V8h-.5Zm5.447.04c-.5 0-.947-.113-1.34-.34a2.567 2.567 0 0 1-.93-.94 2.73 2.73 0 0 1-.34-1.37c0-.52.113-.977.34-1.37.233-.4.543-.713.93-.94.393-.227.84-.34 1.34-.34.5 0 .946.113 1.34.34.393.227.703.54.93.94.226.393.34.85.34 1.37 0 .513-.114.97-.34 1.37a2.47 2.47 0 0 1-.93.94c-.394.227-.84.34-1.34.34Zm0-.45c.4 0 .76-.09 1.08-.27.32-.187.57-.447.75-.78.18-.333.27-.717.27-1.15 0-.44-.09-.823-.27-1.15-.18-.333-.43-.59-.75-.77-.32-.187-.68-.28-1.08-.28s-.76.093-1.08.28c-.314.18-.564.437-.75.77-.18.327-.27.71-.27 1.15 0 .433.09.817.27 1.15.186.333.436.593.75.78.32.18.68.27 1.08.27Zm6.868.45c-.46 0-.877-.107-1.25-.32a2.357 2.357 0 0 1-.88-.91c-.213-.4-.32-.873-.32-1.42 0-.547.107-1.017.32-1.41.22-.4.513-.707.88-.92.373-.213.79-.32 1.25-.32.493 0 .933.113 1.32.34.393.22.7.53.92.93.227.4.34.86.34 1.38 0 .52-.113.98-.34 1.38a2.4 2.4 0 0 1-.92.94c-.387.22-.827.33-1.32.33Zm-2.62 1.9V2.78h.48v1.71l-.08.91.1.91v3.63h-.5Zm2.59-2.35c.4 0 .76-.09 1.08-.27.32-.187.57-.447.75-.78a2.31 2.31 0 0 0 .28-1.15c0-.44-.093-.823-.28-1.15-.18-.333-.43-.59-.75-.77-.32-.187-.68-.28-1.08-.28s-.76.093-1.08.28a1.99 1.99 0 0 0-.75.77c-.18.327-.27.71-.27 1.15 0 .433.09.817.27 1.15.187.333.437.593.75.78.32.18.68.27 1.08.27Zm9.904.46c-.52 0-1.003-.087-1.45-.26-.44-.18-.823-.43-1.15-.75a3.413 3.413 0 0 1-.76-1.12 3.666 3.666 0 0 1-.27-1.42c0-.513.09-.983.27-1.41.18-.433.434-.81.76-1.13.334-.32.72-.567 1.16-.74.44-.18.92-.27 1.44-.27.494 0 .954.08 1.38.24.434.16.804.403 1.11.73l-.32.33a2.667 2.667 0 0 0-1-.63c-.36-.133-.743-.2-1.15-.2-.446 0-.863.077-1.25.23-.38.153-.713.37-1 .65-.28.28-.5.607-.66.98-.153.373-.23.78-.23 1.22 0 .44.077.847.23 1.22.16.373.38.7.66.98.287.28.62.497 1 .65.387.153.804.23 1.25.23.407 0 .79-.063 1.15-.19.367-.133.7-.35 1-.65l.32.33a2.944 2.944 0 0 1-1.11.74c-.426.16-.886.24-1.38.24Zm4.199-.05V1h2.51c.586 0 1.09.093 1.51.28.42.187.743.457.97.81.226.347.34.77.34 1.27 0 .487-.114.907-.34 1.26-.227.347-.55.617-.97.81-.42.187-.924.28-1.51.28h-2.23l.23-.24V8h-.51Zm4.86 0-1.82-2.54h.58l1.82 2.54h-.58Zm-4.35-2.5-.23-.24h2.23c.753 0 1.323-.167 1.71-.5.393-.333.59-.8.59-1.4 0-.607-.197-1.073-.59-1.4-.387-.333-.957-.5-1.71-.5h-2.23l.23-.25V5.5Zm6.687 2.5V1h.43l3.25 5.61h-.23l3.24-5.61h.42l.01 7h-.5l-.01-6.23h.14l-3.07 5.3h-.25l-3.08-5.3h.15V8h-.5ZM.08 20v-5.22h2.2c.573 0 1.027.113 1.36.34.333.227.5.557.5.99 0 .427-.163.75-.49.97-.32.22-.737.33-1.25.33l.14-.15c.613 0 1.063.113 1.35.34.287.227.43.56.43 1 0 .447-.163.793-.49 1.04-.32.24-.817.36-1.49.36H.08Zm.49-.41h1.76c.487 0 .857-.08 1.11-.24.253-.16.38-.417.38-.77 0-.36-.113-.62-.34-.78-.22-.167-.577-.25-1.07-.25H.57v2.04Zm0-2.43h1.68c.44 0 .78-.083 1.02-.25.247-.167.37-.413.37-.74s-.123-.57-.37-.73c-.24-.167-.58-.25-1.02-.25H.57v1.97ZM8.844 20v-7h2.51c.587 0 1.09.093 1.51.28.42.187.743.457.97.81.227.347.34.77.34 1.27 0 .487-.113.907-.34 1.26a2.16 2.16 0 0 1-.97.81c-.42.187-.923.28-1.51.28h-2.23l.23-.24V20h-.51Zm.51-2.5-.23-.25h2.23c.753 0 1.323-.163 1.71-.49.393-.333.59-.8.59-1.4 0-.607-.197-1.073-.59-1.4-.387-.333-.957-.5-1.71-.5h-2.23l.23-.25v4.29Zm8.324 2.54c-.5 0-.947-.113-1.34-.34a2.567 2.567 0 0 1-.93-.94 2.73 2.73 0 0 1-.34-1.37c0-.52.113-.977.34-1.37.233-.4.543-.713.93-.94.393-.227.84-.34 1.34-.34.5 0 .946.113 1.34.34.393.227.703.54.93.94.226.393.34.85.34 1.37 0 .513-.114.97-.34 1.37a2.47 2.47 0 0 1-.93.94c-.394.227-.84.34-1.34.34Zm0-.45c.4 0 .76-.09 1.08-.27.32-.187.57-.447.75-.78.18-.333.27-.717.27-1.15 0-.44-.09-.823-.27-1.15-.18-.333-.43-.59-.75-.77-.32-.187-.68-.28-1.08-.28s-.76.093-1.08.28c-.314.18-.564.437-.75.77-.18.327-.27.71-.27 1.15 0 .433.09.817.27 1.15.186.333.436.593.75.78.32.18.68.27 1.08.27Zm6.348.45a2.71 2.71 0 0 1-1.36-.34 2.544 2.544 0 0 1-.94-.94 2.73 2.73 0 0 1-.34-1.37c0-.52.113-.98.34-1.38.233-.4.547-.71.94-.93.4-.227.853-.34 1.36-.34.42 0 .8.08 1.14.24.347.16.627.4.84.72l-.37.27a1.701 1.701 0 0 0-.7-.59 2.181 2.181 0 0 0-.91-.19c-.407 0-.773.093-1.1.28-.32.18-.573.437-.76.77-.18.327-.27.71-.27 1.15 0 .44.09.827.27 1.16.187.327.44.583.76.77.327.18.693.27 1.1.27.327 0 .63-.063.91-.19s.513-.323.7-.59l.37.27c-.213.32-.493.56-.84.72-.34.16-.72.24-1.14.24Zm5.419 0a2.71 2.71 0 0 1-1.36-.34 2.543 2.543 0 0 1-.94-.94 2.73 2.73 0 0 1-.34-1.37c0-.52.113-.98.34-1.38.233-.4.546-.71.94-.93.4-.227.853-.34 1.36-.34.42 0 .8.08 1.14.24.346.16.626.4.84.72l-.37.27a1.702 1.702 0 0 0-.7-.59 2.182 2.182 0 0 0-.91-.19c-.407 0-.774.093-1.1.28-.32.18-.574.437-.76.77-.18.327-.27.71-.27 1.15 0 .44.09.827.27 1.16.186.327.44.583.76.77.326.18.693.27 1.1.27.326 0 .63-.063.91-.19s.513-.323.7-.59l.37.27c-.214.32-.494.56-.84.72-.34.16-.72.24-1.14.24ZM32.94 20v-5.22h.5v4.45l3.72-4.45h.44V20h-.5v-4.45L33.381 20h-.44Zm6.817 0v-5.22h.5v4.45l3.72-4.45h.44V20h-.5v-4.45L40.198 20h-.44Zm9.384 0v-5.22h.5v4.45l3.72-4.45h.44V20h-.5v-4.45L49.583 20h-.44Zm11.545.04c-.526 0-.993-.113-1.4-.34-.4-.227-.716-.54-.95-.94a2.73 2.73 0 0 1-.34-1.37c0-.52.107-.977.32-1.37.22-.4.52-.713.9-.94a2.45 2.45 0 0 1 1.28-.34c.474 0 .897.11 1.27.33.38.22.677.53.89.93.22.393.33.85.33 1.37 0 .02-.003.043-.01.07v.07h-4.61v-.39h4.34l-.2.19c.007-.407-.08-.77-.26-1.09a1.927 1.927 0 0 0-1.75-1.04 1.96 1.96 0 0 0-1.04.28c-.3.18-.536.433-.71.76-.173.32-.26.687-.26 1.1v.09c0 .427.094.807.28 1.14.194.327.457.583.79.77.334.18.714.27 1.14.27.334 0 .644-.06.93-.18.294-.12.54-.303.74-.55l.29.33c-.226.28-.513.493-.86.64-.34.14-.71.21-1.11.21Zm7.324-.48-.12.15v-4.93h.5v4.93l-.15-.15h3.04l-.14.15v-4.93h.5V20h-7.02v-5.22h.5v4.93l-.14-.15h3.03Zm3.97 1.62v-1.33l.14.15h-1.02v-.44h1.36v1.62h-.48Zm3.98-1.14c-.527 0-.994-.113-1.4-.34-.4-.227-.717-.54-.95-.94a2.73 2.73 0 0 1-.34-1.37c0-.52.106-.977.32-1.37.22-.4.52-.713.9-.94a2.45 2.45 0 0 1 1.28-.34c.473 0 .896.11 1.27.33.38.22.676.53.89.93.22.393.33.85.33 1.37 0 .02-.004.043-.01.07v.07h-4.61v-.39h4.34l-.2.19c.006-.407-.08-.77-.26-1.09a1.927 1.927 0 0 0-1.75-1.04 1.96 1.96 0 0 0-1.04.28c-.3.18-.537.433-.71.76-.174.32-.26.687-.26 1.1v.09c0 .427.093.807.28 1.14.193.327.456.583.79.77.333.18.713.27 1.14.27.333 0 .643-.06.93-.18.293-.12.54-.303.74-.55l.29.33c-.227.28-.514.493-.86.64-.34.14-.71.21-1.11.21Zm.67-6.38a.361.361 0 0 1-.36-.36.361.361 0 0 1 .36-.36c.1 0 .183.033.25.1.073.067.11.153.11.26 0 .1-.037.187-.11.26a.34.34 0 0 1-.25.1Zm-1.72 0a.374.374 0 0 1-.26-.1.374.374 0 0 1-.1-.26c0-.107.033-.193.1-.26.073-.067.16-.1.26-.1s.183.033.25.1c.073.067.11.153.11.26 0 .1-.037.187-.11.26a.34.34 0 0 1-.25.1Zm9.622 6.39c-.553 0-1.027-.08-1.42-.24-.394-.16-.697-.387-.91-.68-.207-.293-.31-.643-.31-1.05 0-.393.103-.73.31-1.01.206-.28.507-.493.9-.64.393-.153.87-.23 1.43-.23.56 0 1.037.077 1.43.23.4.147.703.36.91.64.213.28.32.617.32 1.01 0 .407-.107.757-.32 1.05-.214.293-.52.52-.92.68-.394.16-.867.24-1.42.24Zm0-.44c.673 0 1.2-.137 1.58-.41.38-.273.57-.647.57-1.12 0-.467-.19-.837-.57-1.11-.38-.273-.907-.41-1.58-.41-.674 0-1.197.137-1.57.41-.373.273-.56.643-.56 1.11 0 .473.186.847.56 1.12.373.273.897.41 1.57.41Zm0-3.12c-.507 0-.94-.067-1.3-.2-.354-.14-.624-.34-.81-.6-.187-.26-.28-.57-.28-.93 0-.373.097-.693.29-.96.2-.273.48-.483.84-.63.36-.147.78-.22 1.26-.22.486 0 .91.073 1.27.22.36.147.64.357.84.63.2.267.3.587.3.96 0 .36-.097.67-.29.93-.187.26-.46.46-.82.6-.36.133-.793.2-1.3.2Zm0-.35c.6 0 1.067-.123 1.4-.37.333-.247.5-.577.5-.99 0-.433-.174-.773-.52-1.02-.34-.247-.8-.37-1.38-.37-.573 0-1.03.123-1.37.37-.34.247-.51.583-.51 1.01 0 .42.163.753.49 1 .333.247.796.37 1.39.37Zm8.927 3.9a2.71 2.71 0 0 1-1.36-.34 2.544 2.544 0 0 1-.94-.94 2.73 2.73 0 0 1-.34-1.37c0-.52.113-.98.34-1.38.233-.4.546-.71.94-.93.4-.227.853-.34 1.36-.34.42 0 .8.08 1.14.24.346.16.626.4.84.72l-.37.27a1.701 1.701 0 0 0-.7-.59 2.181 2.181 0 0 0-.91-.19c-.407 0-.774.093-1.1.28-.32.18-.574.437-.76.77-.18.327-.27.71-.27 1.15 0 .44.09.827.27 1.16.186.327.44.583.76.77.326.18.693.27 1.1.27.326 0 .63-.063.91-.19s.513-.323.7-.59l.37.27c-.214.32-.494.56-.84.72-.34.16-.72.24-1.14.24Zm4.289-.04v-4.92l.14.15h-2.18v-.45h4.58v.45h-2.18l.14-.15V20h-.5Zm6.24.04c-.46 0-.876-.107-1.25-.32a2.364 2.364 0 0 1-.88-.91c-.213-.4-.32-.873-.32-1.42 0-.547.107-1.017.32-1.41.22-.4.514-.707.88-.92.374-.213.79-.32 1.25-.32.494 0 .934.113 1.32.34.394.22.7.53.92.93.227.4.34.86.34 1.38 0 .52-.113.98-.34 1.38-.22.4-.526.713-.92.94-.386.22-.826.33-1.32.33Zm-2.62 1.9v-7.16h.48v1.71l-.08.91.1.91v3.63h-.5Zm2.59-2.35c.4 0 .76-.09 1.08-.27.32-.187.57-.447.75-.78a2.31 2.31 0 0 0 .28-1.15c0-.44-.093-.823-.28-1.15-.18-.333-.43-.59-.75-.77-.32-.187-.68-.28-1.08-.28s-.76.093-1.08.28a1.99 1.99 0 0 0-.75.77c-.18.327-.27.71-.27 1.15 0 .433.09.817.27 1.15.187.333.437.593.75.78.32.18.68.27 1.08.27Zm7.477.41v-1.19l-.02-.18v-1.96c0-.487-.134-.857-.4-1.11-.26-.253-.644-.38-1.15-.38-.36 0-.697.063-1.01.19-.307.12-.57.277-.79.47l-.25-.36c.26-.233.573-.413.94-.54.366-.133.75-.2 1.15-.2.646 0 1.143.163 1.49.49.346.327.52.813.52 1.46V20h-.48Zm-1.88.04a2.6 2.6 0 0 1-1.01-.18 1.514 1.514 0 0 1-.65-.53 1.401 1.401 0 0 1-.22-.78c0-.267.06-.507.18-.72.126-.22.333-.397.62-.53.286-.14.67-.21 1.15-.21h1.92v.39h-1.91c-.54 0-.92.1-1.14.3-.214.2-.32.45-.32.75 0 .333.126.6.38.8.253.2.61.3 1.07.3.44 0 .81-.1 1.11-.3.306-.2.533-.49.68-.87l.14.34c-.14.38-.38.683-.72.91-.334.22-.76.33-1.28.33Zm4.391-.04v-5.22h.5v2.38h3.54v-2.38h.5V20h-.5v-2.4h-3.54V20h-.5Zm9.959 0v-1.19l-.02-.18v-1.96c0-.487-.133-.857-.4-1.11-.26-.253-.643-.38-1.15-.38-.36 0-.696.063-1.01.19-.306.12-.57.277-.79.47l-.25-.36c.26-.233.574-.413.94-.54.367-.133.75-.2 1.15-.2.647 0 1.144.163 1.49.49.347.327.52.813.52 1.46V20h-.48Zm-1.88.04c-.386 0-.723-.06-1.01-.18a1.52 1.52 0 0 1-.65-.53 1.41 1.41 0 0 1-.22-.78c0-.267.06-.507.18-.72.127-.22.334-.397.62-.53.287-.14.67-.21 1.15-.21h1.92v.39h-1.91c-.54 0-.92.1-1.14.3-.213.2-.32.45-.32.75 0 .333.127.6.38.8.254.2.61.3 1.07.3.44 0 .81-.1 1.11-.3.307-.2.534-.49.68-.87l.14.34c-.14.38-.38.683-.72.91-.333.22-.76.33-1.28.33Zm3.512-.04 2.17-2.82-.01.24-2.05-2.64h.57l1.79 2.31h-.21l1.78-2.31h.56l-2.07 2.67.01-.27 2.2 2.82h-.59l-1.89-2.46.19.02-1.88 2.44h-.57Z" fill="#E4E5EA"/></svg>