<svg width="132" height="22" viewBox="0 0 132 22" fill="none" xmlns="http://www.w3.org/2000/svg">
<path d="M3.93 8L1.69 5.39L2.11 5.15L4.53 8H3.93ZM0.08 8V2.78H0.58V8H0.08ZM0.42 5.58V5.15H2.06V5.58H0.42ZM2.14 5.44L1.68 5.36L3.82 2.78H4.37L2.14 5.44ZM8.39359 8.04C7.93359 8.04 7.51693 7.93333 7.14359 7.72C6.77693 7.50667 6.48359 7.20333 6.26359 6.81C6.05026 6.41 5.94359 5.93667 5.94359 5.39C5.94359 4.84333 6.05026 4.37333 6.26359 3.98C6.48359 3.58 6.77693 3.27333 7.14359 3.06C7.51693 2.84667 7.93359 2.74 8.39359 2.74C8.88693 2.74 9.32693 2.85333 9.71359 3.08C10.1069 3.3 10.4136 3.61 10.6336 4.01C10.8603 4.41 10.9736 4.87 10.9736 5.39C10.9736 5.91 10.8603 6.37 10.6336 6.77C10.4136 7.17 10.1069 7.48333 9.71359 7.71C9.32693 7.93 8.88693 8.04 8.39359 8.04ZM5.77359 9.94V2.78H6.25359V4.49L6.17359 5.4L6.27359 6.31V9.94H5.77359ZM8.36359 7.59C8.76359 7.59 9.12359 7.5 9.44359 7.32C9.76359 7.13333 10.0136 6.87333 10.1936 6.54C10.3803 6.20667 10.4736 5.82333 10.4736 5.39C10.4736 4.95 10.3803 4.56667 10.1936 4.24C10.0136 3.90667 9.76359 3.65 9.44359 3.47C9.12359 3.28333 8.76359 3.19 8.36359 3.19C7.96359 3.19 7.60359 3.28333 7.28359 3.47C6.97026 3.65 6.72026 3.90667 6.53359 4.24C6.35359 4.56667 6.26359 4.95 6.26359 5.39C6.26359 5.82333 6.35359 6.20667 6.53359 6.54C6.72026 6.87333 6.97026 7.13333 7.28359 7.32C7.60359 7.5 7.96359 7.59 8.36359 7.59ZM12.393 9.98C12.153 9.98 11.9264 9.94 11.713 9.86C11.5064 9.78 11.3297 9.66333 11.183 9.51L11.433 9.13C11.5664 9.27 11.7097 9.37333 11.863 9.44C12.023 9.50667 12.203 9.54 12.403 9.54C12.643 9.54 12.853 9.47333 13.033 9.34C13.2197 9.20667 13.393 8.96333 13.553 8.61L13.913 7.81L13.983 7.72L16.193 2.78H16.703L14.023 8.71C13.883 9.03 13.7297 9.28 13.563 9.46C13.403 9.64667 13.2264 9.78 13.033 9.86C12.8397 9.94 12.6264 9.98 12.393 9.98ZM13.903 8.13L11.483 2.78H12.013L14.213 7.69L13.903 8.13ZM17.912 8V2.78H22.472V8H21.972V3.08L22.112 3.23H18.272L18.412 3.08V8H17.912ZM24.6308 8V2.78H25.1308V5.16H28.6708V2.78H29.1708V8H28.6708V5.6H25.1308V8H24.6308ZM36.34 8V2.78H36.84V8H36.34ZM33.39 4.68C34.0433 4.68667 34.5367 4.83 34.87 5.11C35.21 5.38333 35.38 5.78667 35.38 6.32C35.38 6.87333 35.2 7.29667 34.84 7.59C34.48 7.88333 33.96 8.02667 33.28 8.02L31.33 8V2.78H31.83V4.66L33.39 4.68ZM33.26 7.62C33.7933 7.62667 34.1967 7.52 34.47 7.3C34.7433 7.08 34.88 6.75333 34.88 6.32C34.88 5.9 34.7433 5.58667 34.47 5.38C34.2033 5.17333 33.8 5.06667 33.26 5.06L31.83 5.05V7.6L33.26 7.62ZM38.9863 8V2.78H39.4863V7.23L43.2063 2.78H43.6463V8H43.1463V3.55L39.4263 8H38.9863ZM41.2963 1.98C40.8896 1.98 40.5529 1.87333 40.2863 1.66C40.0263 1.44 39.8896 1.13667 39.8763 0.75H40.2463C40.2596 1.02333 40.3629 1.24 40.5563 1.4C40.7563 1.56 41.0029 1.64 41.2963 1.64C41.5896 1.64 41.8329 1.56 42.0263 1.4C42.2263 1.24 42.3296 1.02333 42.3363 0.75H42.7163C42.7096 1.13667 42.5729 1.44 42.3063 1.66C42.0463 1.87333 41.7096 1.98 41.2963 1.98ZM48.371 8V2.78H48.871V7.23L52.591 2.78H53.031V8H52.531V3.55L48.811 8H48.371ZM55.1874 8V2.78H55.6874V5.16H59.2274V2.78H59.7274V8H59.2274V5.6H55.6874V8H55.1874ZM62.8366 8V3.08L62.9766 3.23H60.7966V2.78H65.3766V3.23H63.1966L63.3366 3.08V8H62.8366ZM68.363 8.04C67.8364 8.04 67.3697 7.92667 66.963 7.7C66.563 7.47333 66.2464 7.16 66.013 6.76C65.7864 6.36 65.673 5.90333 65.673 5.39C65.673 4.87 65.7797 4.41333 65.993 4.02C66.213 3.62 66.513 3.30667 66.893 3.08C67.273 2.85333 67.6997 2.74 68.173 2.74C68.6464 2.74 69.0697 2.85 69.443 3.07C69.823 3.29 70.1197 3.6 70.333 4C70.553 4.39333 70.663 4.85 70.663 5.37C70.663 5.39 70.6597 5.41333 70.653 5.44C70.653 5.46 70.653 5.48333 70.653 5.51H66.043V5.12H70.383L70.183 5.31C70.1897 4.90333 70.103 4.54 69.923 4.22C69.7497 3.89333 69.513 3.64 69.213 3.46C68.913 3.27333 68.5664 3.18 68.173 3.18C67.7864 3.18 67.4397 3.27333 67.133 3.46C66.833 3.64 66.5964 3.89333 66.423 4.22C66.2497 4.54 66.163 4.90667 66.163 5.32V5.41C66.163 5.83667 66.2564 6.21667 66.443 6.55C66.6364 6.87667 66.8997 7.13333 67.233 7.32C67.5664 7.5 67.9464 7.59 68.373 7.59C68.7064 7.59 69.0164 7.53 69.303 7.41C69.5964 7.29 69.843 7.10667 70.043 6.86L70.333 7.19C70.1064 7.47 69.8197 7.68333 69.473 7.83C69.133 7.97 68.763 8.04 68.363 8.04ZM72.2968 8V2.78H75.8668V3.23H72.6568L72.7968 3.09V8H72.2968ZM79.5655 8.04C79.1055 8.04 78.6888 7.93333 78.3155 7.72C77.9488 7.50667 77.6555 7.20333 77.4355 6.81C77.2221 6.41 77.1155 5.93667 77.1155 5.39C77.1155 4.84333 77.2221 4.37333 77.4355 3.98C77.6555 3.58 77.9488 3.27333 78.3155 3.06C78.6888 2.84667 79.1055 2.74 79.5655 2.74C80.0588 2.74 80.4988 2.85333 80.8855 3.08C81.2788 3.3 81.5855 3.61 81.8055 4.01C82.0321 4.41 82.1455 4.87 82.1455 5.39C82.1455 5.91 82.0321 6.37 81.8055 6.77C81.5855 7.17 81.2788 7.48333 80.8855 7.71C80.4988 7.93 80.0588 8.04 79.5655 8.04ZM76.9455 9.94V2.78H77.4255V4.49L77.3455 5.4L77.4455 6.31V9.94H76.9455ZM79.5355 7.59C79.9355 7.59 80.2955 7.5 80.6155 7.32C80.9355 7.13333 81.1855 6.87333 81.3655 6.54C81.5521 6.20667 81.6455 5.82333 81.6455 5.39C81.6455 4.95 81.5521 4.56667 81.3655 4.24C81.1855 3.90667 80.9355 3.65 80.6155 3.47C80.2955 3.28333 79.9355 3.19 79.5355 3.19C79.1355 3.19 78.7755 3.28333 78.4555 3.47C78.1421 3.65 77.8921 3.90667 77.7055 4.24C77.5255 4.56667 77.4355 4.95 77.4355 5.39C77.4355 5.82333 77.5255 6.20667 77.7055 6.54C77.8921 6.87333 78.1421 7.13333 78.4555 7.32C78.7755 7.5 79.1355 7.59 79.5355 7.59ZM87.0119 8V6.81L86.9919 6.63V4.67C86.9919 4.18333 86.8585 3.81333 86.5919 3.56C86.3319 3.30667 85.9485 3.18 85.4419 3.18C85.0819 3.18 84.7452 3.24333 84.4319 3.37C84.1252 3.49 83.8619 3.64667 83.6419 3.84L83.3919 3.48C83.6519 3.24667 83.9652 3.06667 84.3319 2.94C84.6985 2.80667 85.0819 2.74 85.4819 2.74C86.1285 2.74 86.6252 2.90333 86.9719 3.23C87.3185 3.55667 87.4919 4.04333 87.4919 4.69V8H87.0119ZM85.1319 8.04C84.7452 8.04 84.4085 7.98 84.1219 7.86C83.8419 7.73333 83.6252 7.55667 83.4719 7.33C83.3252 7.10333 83.2519 6.84333 83.2519 6.55C83.2519 6.28333 83.3119 6.04333 83.4319 5.83C83.5585 5.61 83.7652 5.43333 84.0519 5.3C84.3385 5.16 84.7219 5.09 85.2019 5.09H87.1219V5.48H85.2119C84.6719 5.48 84.2919 5.58 84.0719 5.78C83.8585 5.98 83.7519 6.23 83.7519 6.53C83.7519 6.86333 83.8785 7.13 84.1319 7.33C84.3852 7.53 84.7419 7.63 85.2019 7.63C85.6419 7.63 86.0119 7.53 86.3119 7.33C86.6185 7.13 86.8452 6.84 86.9919 6.46L87.1319 6.8C86.9919 7.18 86.7519 7.48333 86.4119 7.71C86.0785 7.93 85.6519 8.04 85.1319 8.04ZM90.4734 8V3.08L90.6134 3.23H88.4334V2.78H93.0134V3.23H90.8334L90.9734 3.08V8H90.4734ZM95.9198 8.04C95.4198 8.04 94.9731 7.92667 94.5798 7.7C94.1931 7.47333 93.8831 7.16 93.6498 6.76C93.4231 6.36 93.3098 5.90333 93.3098 5.39C93.3098 4.87 93.4231 4.41333 93.6498 4.02C93.8831 3.62 94.1931 3.30667 94.5798 3.08C94.9731 2.85333 95.4198 2.74 95.9198 2.74C96.4198 2.74 96.8664 2.85333 97.2598 3.08C97.6531 3.30667 97.9631 3.62 98.1898 4.02C98.4164 4.41333 98.5298 4.87 98.5298 5.39C98.5298 5.90333 98.4164 6.36 98.1898 6.76C97.9631 7.16 97.6531 7.47333 97.2598 7.7C96.8664 7.92667 96.4198 8.04 95.9198 8.04ZM95.9198 7.59C96.3198 7.59 96.6798 7.5 96.9998 7.32C97.3198 7.13333 97.5698 6.87333 97.7498 6.54C97.9298 6.20667 98.0198 5.82333 98.0198 5.39C98.0198 4.95 97.9298 4.56667 97.7498 4.24C97.5698 3.90667 97.3198 3.65 96.9998 3.47C96.6798 3.28333 96.3198 3.19 95.9198 3.19C95.5198 3.19 95.1598 3.28333 94.8398 3.47C94.5264 3.65 94.2764 3.90667 94.0898 4.24C93.9098 4.56667 93.8198 4.95 93.8198 5.39C93.8198 5.82333 93.9098 6.20667 94.0898 6.54C94.2764 6.87333 94.5264 7.13333 94.8398 7.32C95.1598 7.5 95.5198 7.59 95.9198 7.59ZM102.788 8.04C102.328 8.04 101.911 7.93333 101.538 7.72C101.171 7.50667 100.878 7.20333 100.658 6.81C100.445 6.41 100.338 5.93667 100.338 5.39C100.338 4.84333 100.445 4.37333 100.658 3.98C100.878 3.58 101.171 3.27333 101.538 3.06C101.911 2.84667 102.328 2.74 102.788 2.74C103.281 2.74 103.721 2.85333 104.108 3.08C104.501 3.3 104.808 3.61 105.028 4.01C105.255 4.41 105.368 4.87 105.368 5.39C105.368 5.91 105.255 6.37 105.028 6.77C104.808 7.17 104.501 7.48333 104.108 7.71C103.721 7.93 103.281 8.04 102.788 8.04ZM100.168 9.94V2.78H100.648V4.49L100.568 5.4L100.668 6.31V9.94H100.168ZM102.758 7.59C103.158 7.59 103.518 7.5 103.838 7.32C104.158 7.13333 104.408 6.87333 104.588 6.54C104.775 6.20667 104.868 5.82333 104.868 5.39C104.868 4.95 104.775 4.56667 104.588 4.24C104.408 3.90667 104.158 3.65 103.838 3.47C103.518 3.28333 103.158 3.19 102.758 3.19C102.358 3.19 101.998 3.28333 101.678 3.47C101.365 3.65 101.115 3.90667 100.928 4.24C100.748 4.56667 100.658 4.95 100.658 5.39C100.658 5.82333 100.748 6.20667 100.928 6.54C101.115 6.87333 101.365 7.13333 101.678 7.32C101.998 7.5 102.358 7.59 102.758 7.59ZM112.662 8.05C112.142 8.05 111.659 7.96333 111.212 7.79C110.772 7.61 110.389 7.36 110.062 7.04C109.736 6.72 109.482 6.34667 109.302 5.92C109.122 5.48667 109.032 5.01333 109.032 4.5C109.032 3.98667 109.122 3.51667 109.302 3.09C109.482 2.65667 109.736 2.28 110.062 1.96C110.396 1.64 110.782 1.39333 111.222 1.22C111.662 1.04 112.142 0.95 112.662 0.95C113.156 0.95 113.616 1.03 114.042 1.19C114.476 1.35 114.846 1.59333 115.152 1.92L114.832 2.25C114.532 1.95667 114.199 1.74667 113.832 1.62C113.472 1.48667 113.089 1.42 112.682 1.42C112.236 1.42 111.819 1.49667 111.432 1.65C111.052 1.80333 110.719 2.02 110.432 2.3C110.152 2.58 109.932 2.90667 109.772 3.28C109.619 3.65333 109.542 4.06 109.542 4.5C109.542 4.94 109.619 5.34667 109.772 5.72C109.932 6.09333 110.152 6.42 110.432 6.7C110.719 6.98 111.052 7.19667 111.432 7.35C111.819 7.50333 112.236 7.58 112.682 7.58C113.089 7.58 113.472 7.51667 113.832 7.39C114.199 7.25667 114.532 7.04 114.832 6.74L115.152 7.07C114.846 7.39667 114.476 7.64333 114.042 7.81C113.616 7.97 113.156 8.05 112.662 8.05ZM116.861 8V1H119.371C119.957 1 120.461 1.09333 120.881 1.28C121.301 1.46667 121.624 1.73667 121.851 2.09C122.077 2.43667 122.191 2.86 122.191 3.36C122.191 3.84667 122.077 4.26667 121.851 4.62C121.624 4.96667 121.301 5.23667 120.881 5.43C120.461 5.61667 119.957 5.71 119.371 5.71H117.141L117.371 5.47V8H116.861ZM121.721 8L119.901 5.46H120.481L122.301 8H121.721ZM117.371 5.5L117.141 5.26H119.371C120.124 5.26 120.694 5.09333 121.081 4.76C121.474 4.42667 121.671 3.96 121.671 3.36C121.671 2.75333 121.474 2.28667 121.081 1.96C120.694 1.62667 120.124 1.46 119.371 1.46H117.141L117.371 1.21V5.5ZM124.058 8V1H124.488L127.738 6.61H127.508L130.748 1H131.168L131.178 8H130.678L130.668 1.77H130.808L127.738 7.07H127.488L124.408 1.77H124.558V8H124.058ZM0.08 20V14.78H2.28C2.85333 14.78 3.30667 14.8933 3.64 15.12C3.97333 15.3467 4.14 15.6767 4.14 16.11C4.14 16.5367 3.97667 16.86 3.65 17.08C3.33 17.3 2.91333 17.41 2.4 17.41L2.54 17.26C3.15333 17.26 3.60333 17.3733 3.89 17.6C4.17667 17.8267 4.32 18.16 4.32 18.6C4.32 19.0467 4.15667 19.3933 3.83 19.64C3.51 19.88 3.01333 20 2.34 20H0.08ZM0.57 19.59H2.33C2.81667 19.59 3.18667 19.51 3.44 19.35C3.69333 19.19 3.82 18.9333 3.82 18.58C3.82 18.22 3.70667 17.96 3.48 17.8C3.26 17.6333 2.90333 17.55 2.41 17.55H0.57V19.59ZM0.57 17.16H2.25C2.69 17.16 3.03 17.0767 3.27 16.91C3.51667 16.7433 3.64 16.4967 3.64 16.17C3.64 15.8433 3.51667 15.6 3.27 15.44C3.03 15.2733 2.69 15.19 2.25 15.19H0.57V17.16ZM8.84398 20V13H11.354C11.9407 13 12.444 13.0933 12.864 13.28C13.284 13.4667 13.6073 13.7367 13.834 14.09C14.0607 14.4367 14.174 14.86 14.174 15.36C14.174 15.8467 14.0607 16.2667 13.834 16.62C13.6073 16.9733 13.284 17.2433 12.864 17.43C12.444 17.6167 11.9407 17.71 11.354 17.71H9.12398L9.35398 17.47V20H8.84398ZM9.35398 17.5L9.12398 17.25H11.354C12.1073 17.25 12.6773 17.0867 13.064 16.76C13.4573 16.4267 13.654 15.96 13.654 15.36C13.654 14.7533 13.4573 14.2867 13.064 13.96C12.6773 13.6267 12.1073 13.46 11.354 13.46H9.12398L9.35398 13.21V17.5ZM17.6776 20.04C17.1776 20.04 16.7309 19.9267 16.3376 19.7C15.9509 19.4733 15.6409 19.16 15.4076 18.76C15.1809 18.36 15.0676 17.9033 15.0676 17.39C15.0676 16.87 15.1809 16.4133 15.4076 16.02C15.6409 15.62 15.9509 15.3067 16.3376 15.08C16.7309 14.8533 17.1776 14.74 17.6776 14.74C18.1776 14.74 18.6242 14.8533 19.0176 15.08C19.4109 15.3067 19.7209 15.62 19.9476 16.02C20.1742 16.4133 20.2876 16.87 20.2876 17.39C20.2876 17.9033 20.1742 18.36 19.9476 18.76C19.7209 19.16 19.4109 19.4733 19.0176 19.7C18.6242 19.9267 18.1776 20.04 17.6776 20.04ZM17.6776 19.59C18.0776 19.59 18.4376 19.5 18.7576 19.32C19.0776 19.1333 19.3276 18.8733 19.5076 18.54C19.6876 18.2067 19.7776 17.8233 19.7776 17.39C19.7776 16.95 19.6876 16.5667 19.5076 16.24C19.3276 15.9067 19.0776 15.65 18.7576 15.47C18.4376 15.2833 18.0776 15.19 17.6776 15.19C17.2776 15.19 16.9176 15.2833 16.5976 15.47C16.2842 15.65 16.0342 15.9067 15.8476 16.24C15.6676 16.5667 15.5776 16.95 15.5776 17.39C15.5776 17.8233 15.6676 18.2067 15.8476 18.54C16.0342 18.8733 16.2842 19.1333 16.5976 19.32C16.9176 19.5 17.2776 19.59 17.6776 19.59ZM24.0259 20.04C23.5193 20.04 23.0659 19.9267 22.6659 19.7C22.2726 19.4733 21.9593 19.16 21.7259 18.76C21.4993 18.36 21.3859 17.9033 21.3859 17.39C21.3859 16.87 21.4993 16.41 21.7259 16.01C21.9593 15.61 22.2726 15.3 22.6659 15.08C23.0659 14.8533 23.5193 14.74 24.0259 14.74C24.4459 14.74 24.8259 14.82 25.1659 14.98C25.5126 15.14 25.7926 15.38 26.0059 15.7L25.6359 15.97C25.4493 15.7033 25.2159 15.5067 24.9359 15.38C24.6559 15.2533 24.3526 15.19 24.0259 15.19C23.6193 15.19 23.2526 15.2833 22.9259 15.47C22.6059 15.65 22.3526 15.9067 22.1659 16.24C21.9859 16.5667 21.8959 16.95 21.8959 17.39C21.8959 17.83 21.9859 18.2167 22.1659 18.55C22.3526 18.8767 22.6059 19.1333 22.9259 19.32C23.2526 19.5 23.6193 19.59 24.0259 19.59C24.3526 19.59 24.6559 19.5267 24.9359 19.4C25.2159 19.2733 25.4493 19.0767 25.6359 18.81L26.0059 19.08C25.7926 19.4 25.5126 19.64 25.1659 19.8C24.8259 19.96 24.4459 20.04 24.0259 20.04ZM29.4445 20.04C28.9378 20.04 28.4845 19.9267 28.0845 19.7C27.6911 19.4733 27.3778 19.16 27.1445 18.76C26.9178 18.36 26.8045 17.9033 26.8045 17.39C26.8045 16.87 26.9178 16.41 27.1445 16.01C27.3778 15.61 27.6911 15.3 28.0845 15.08C28.4845 14.8533 28.9378 14.74 29.4445 14.74C29.8645 14.74 30.2445 14.82 30.5845 14.98C30.9311 15.14 31.2111 15.38 31.4245 15.7L31.0545 15.97C30.8678 15.7033 30.6345 15.5067 30.3545 15.38C30.0745 15.2533 29.7711 15.19 29.4445 15.19C29.0378 15.19 28.6711 15.2833 28.3445 15.47C28.0245 15.65 27.7711 15.9067 27.5845 16.24C27.4045 16.5667 27.3145 16.95 27.3145 17.39C27.3145 17.83 27.4045 18.2167 27.5845 18.55C27.7711 18.8767 28.0245 19.1333 28.3445 19.32C28.6711 19.5 29.0378 19.59 29.4445 19.59C29.7711 19.59 30.0745 19.5267 30.3545 19.4C30.6345 19.2733 30.8678 19.0767 31.0545 18.81L31.4245 19.08C31.2111 19.4 30.9311 19.64 30.5845 19.8C30.2445 19.96 29.8645 20.04 29.4445 20.04ZM32.9413 20V14.78H33.4413V19.23L37.1613 14.78H37.6013V20H37.1013V15.55L33.3813 20H32.9413ZM39.7577 20V14.78H40.2577V19.23L43.9777 14.78H44.4177V20H43.9177V15.55L40.1977 20H39.7577ZM49.1425 20V14.78H49.6425V19.23L53.3625 14.78H53.8025V20H53.3025V15.55L49.5825 20H49.1425ZM60.6873 20.04C60.1606 20.04 59.6939 19.9267 59.2873 19.7C58.8873 19.4733 58.5706 19.16 58.3373 18.76C58.1106 18.36 57.9973 17.9033 57.9973 17.39C57.9973 16.87 58.1039 16.4133 58.3173 16.02C58.5373 15.62 58.8373 15.3067 59.2173 15.08C59.5973 14.8533 60.0239 14.74 60.4973 14.74C60.9706 14.74 61.3939 14.85 61.7673 15.07C62.1473 15.29 62.4439 15.6 62.6573 16C62.8773 16.3933 62.9873 16.85 62.9873 17.37C62.9873 17.39 62.9839 17.4133 62.9773 17.44C62.9773 17.46 62.9773 17.4833 62.9773 17.51H58.3673V17.12H62.7073L62.5073 17.31C62.5139 16.9033 62.4273 16.54 62.2473 16.22C62.0739 15.8933 61.8373 15.64 61.5373 15.46C61.2373 15.2733 60.8906 15.18 60.4973 15.18C60.1106 15.18 59.7639 15.2733 59.4573 15.46C59.1573 15.64 58.9206 15.8933 58.7473 16.22C58.5739 16.54 58.4873 16.9067 58.4873 17.32V17.41C58.4873 17.8367 58.5806 18.2167 58.7673 18.55C58.9606 18.8767 59.2239 19.1333 59.5573 19.32C59.8906 19.5 60.2706 19.59 60.6973 19.59C61.0306 19.59 61.3406 19.53 61.6273 19.41C61.9206 19.29 62.1673 19.1067 62.3673 18.86L62.6573 19.19C62.4306 19.47 62.1439 19.6833 61.7973 19.83C61.4573 19.97 61.0873 20.04 60.6873 20.04ZM68.011 19.56L67.891 19.71V14.78H68.391V19.71L68.241 19.56H71.281L71.141 19.71V14.78H71.641V20H64.621V14.78H65.121V19.71L64.981 19.56H68.011ZM71.981 21.18V19.85L72.121 20H71.101V19.56H72.461V21.18H71.981ZM75.9607 20.04C75.434 20.04 74.9674 19.9267 74.5607 19.7C74.1607 19.4733 73.844 19.16 73.6107 18.76C73.384 18.36 73.2707 17.9033 73.2707 17.39C73.2707 16.87 73.3774 16.4133 73.5907 16.02C73.8107 15.62 74.1107 15.3067 74.4907 15.08C74.8707 14.8533 75.2974 14.74 75.7707 14.74C76.244 14.74 76.6674 14.85 77.0407 15.07C77.4207 15.29 77.7174 15.6 77.9307 16C78.1507 16.3933 78.2607 16.85 78.2607 17.37C78.2607 17.39 78.2574 17.4133 78.2507 17.44C78.2507 17.46 78.2507 17.4833 78.2507 17.51H73.6407V17.12H77.9807L77.7807 17.31C77.7874 16.9033 77.7007 16.54 77.5207 16.22C77.3474 15.8933 77.1107 15.64 76.8107 15.46C76.5107 15.2733 76.164 15.18 75.7707 15.18C75.384 15.18 75.0374 15.2733 74.7307 15.46C74.4307 15.64 74.194 15.8933 74.0207 16.22C73.8474 16.54 73.7607 16.9067 73.7607 17.32V17.41C73.7607 17.8367 73.854 18.2167 74.0407 18.55C74.234 18.8767 74.4974 19.1333 74.8307 19.32C75.164 19.5 75.544 19.59 75.9707 19.59C76.304 19.59 76.614 19.53 76.9007 19.41C77.194 19.29 77.4407 19.1067 77.6407 18.86L77.9307 19.19C77.704 19.47 77.4174 19.6833 77.0707 19.83C76.7307 19.97 76.3607 20.04 75.9607 20.04ZM76.6307 13.66C76.5374 13.66 76.454 13.6267 76.3807 13.56C76.3074 13.4867 76.2707 13.4 76.2707 13.3C76.2707 13.1933 76.3074 13.1067 76.3807 13.04C76.454 12.9733 76.5374 12.94 76.6307 12.94C76.7307 12.94 76.814 12.9733 76.8807 13.04C76.954 13.1067 76.9907 13.1933 76.9907 13.3C76.9907 13.4 76.954 13.4867 76.8807 13.56C76.814 13.6267 76.7307 13.66 76.6307 13.66ZM74.9107 13.66C74.8107 13.66 74.724 13.6267 74.6507 13.56C74.584 13.4867 74.5507 13.4 74.5507 13.3C74.5507 13.1933 74.584 13.1067 74.6507 13.04C74.724 12.9733 74.8107 12.94 74.9107 12.94C75.0107 12.94 75.094 12.9733 75.1607 13.04C75.234 13.1067 75.2707 13.1933 75.2707 13.3C75.2707 13.4 75.234 13.4867 75.1607 13.56C75.094 13.6267 75.0107 13.66 74.9107 13.66ZM84.5328 20.05C83.9795 20.05 83.5061 19.97 83.1128 19.81C82.7195 19.65 82.4161 19.4233 82.2028 19.13C81.9961 18.8367 81.8928 18.4867 81.8928 18.08C81.8928 17.6867 81.9961 17.35 82.2028 17.07C82.4095 16.79 82.7095 16.5767 83.1028 16.43C83.4961 16.2767 83.9728 16.2 84.5328 16.2C85.0928 16.2 85.5695 16.2767 85.9628 16.43C86.3628 16.5767 86.6661 16.79 86.8728 17.07C87.0861 17.35 87.1928 17.6867 87.1928 18.08C87.1928 18.4867 87.0861 18.8367 86.8728 19.13C86.6595 19.4233 86.3528 19.65 85.9528 19.81C85.5595 19.97 85.0861 20.05 84.5328 20.05ZM84.5328 19.61C85.2061 19.61 85.7328 19.4733 86.1128 19.2C86.4928 18.9267 86.6828 18.5533 86.6828 18.08C86.6828 17.6133 86.4928 17.2433 86.1128 16.97C85.7328 16.6967 85.2061 16.56 84.5328 16.56C83.8595 16.56 83.3361 16.6967 82.9628 16.97C82.5895 17.2433 82.4028 17.6133 82.4028 18.08C82.4028 18.5533 82.5895 18.9267 82.9628 19.2C83.3361 19.4733 83.8595 19.61 84.5328 19.61ZM84.5328 16.49C84.0261 16.49 83.5928 16.4233 83.2328 16.29C82.8795 16.15 82.6095 15.95 82.4228 15.69C82.2361 15.43 82.1428 15.12 82.1428 14.76C82.1428 14.3867 82.2395 14.0667 82.4328 13.8C82.6328 13.5267 82.9128 13.3167 83.2728 13.17C83.6328 13.0233 84.0528 12.95 84.5328 12.95C85.0195 12.95 85.4428 13.0233 85.8028 13.17C86.1628 13.3167 86.4428 13.5267 86.6428 13.8C86.8428 14.0667 86.9428 14.3867 86.9428 14.76C86.9428 15.12 86.8461 15.43 86.6528 15.69C86.4661 15.95 86.1928 16.15 85.8328 16.29C85.4728 16.4233 85.0395 16.49 84.5328 16.49ZM84.5328 16.14C85.1328 16.14 85.5995 16.0167 85.9328 15.77C86.2661 15.5233 86.4328 15.1933 86.4328 14.78C86.4328 14.3467 86.2595 14.0067 85.9128 13.76C85.5728 13.5133 85.1128 13.39 84.5328 13.39C83.9595 13.39 83.5028 13.5133 83.1628 13.76C82.8228 14.0067 82.6528 14.3433 82.6528 14.77C82.6528 15.19 82.8161 15.5233 83.1428 15.77C83.4761 16.0167 83.9395 16.14 84.5328 16.14ZM93.4595 20.04C92.9529 20.04 92.4995 19.9267 92.0995 19.7C91.7062 19.4733 91.3929 19.16 91.1595 18.76C90.9329 18.36 90.8195 17.9033 90.8195 17.39C90.8195 16.87 90.9329 16.41 91.1595 16.01C91.3929 15.61 91.7062 15.3 92.0995 15.08C92.4995 14.8533 92.9529 14.74 93.4595 14.74C93.8795 14.74 94.2595 14.82 94.5995 14.98C94.9462 15.14 95.2262 15.38 95.4395 15.7L95.0695 15.97C94.8829 15.7033 94.6495 15.5067 94.3695 15.38C94.0895 15.2533 93.7862 15.19 93.4595 15.19C93.0529 15.19 92.6862 15.2833 92.3595 15.47C92.0395 15.65 91.7862 15.9067 91.5995 16.24C91.4195 16.5667 91.3295 16.95 91.3295 17.39C91.3295 17.83 91.4195 18.2167 91.5995 18.55C91.7862 18.8767 92.0395 19.1333 92.3595 19.32C92.6862 19.5 93.0529 19.59 93.4595 19.59C93.7862 19.59 94.0895 19.5267 94.3695 19.4C94.6495 19.2733 94.8829 19.0767 95.0695 18.81L95.4395 19.08C95.2262 19.4 94.9462 19.64 94.5995 19.8C94.2595 19.96 93.8795 20.04 93.4595 20.04ZM97.7488 20V15.08L97.8888 15.23H95.7087V14.78H100.289V15.23H98.1088L98.2488 15.08V20H97.7488ZM103.989 20.04C103.529 20.04 103.113 19.9333 102.739 19.72C102.373 19.5067 102.079 19.2033 101.859 18.81C101.646 18.41 101.539 17.9367 101.539 17.39C101.539 16.8433 101.646 16.3733 101.859 15.98C102.079 15.58 102.373 15.2733 102.739 15.06C103.113 14.8467 103.529 14.74 103.989 14.74C104.483 14.74 104.923 14.8533 105.309 15.08C105.703 15.3 106.009 15.61 106.229 16.01C106.456 16.41 106.569 16.87 106.569 17.39C106.569 17.91 106.456 18.37 106.229 18.77C106.009 19.17 105.703 19.4833 105.309 19.71C104.923 19.93 104.483 20.04 103.989 20.04ZM101.369 21.94V14.78H101.849V16.49L101.769 17.4L101.869 18.31V21.94H101.369ZM103.959 19.59C104.359 19.59 104.719 19.5 105.039 19.32C105.359 19.1333 105.609 18.8733 105.789 18.54C105.976 18.2067 106.069 17.8233 106.069 17.39C106.069 16.95 105.976 16.5667 105.789 16.24C105.609 15.9067 105.359 15.65 105.039 15.47C104.719 15.2833 104.359 15.19 103.959 15.19C103.559 15.19 103.199 15.2833 102.879 15.47C102.566 15.65 102.316 15.9067 102.129 16.24C101.949 16.5667 101.859 16.95 101.859 17.39C101.859 17.8233 101.949 18.2067 102.129 18.54C102.316 18.8733 102.566 19.1333 102.879 19.32C103.199 19.5 103.559 19.59 103.959 19.59ZM111.436 20V18.81L111.416 18.63V16.67C111.416 16.1833 111.282 15.8133 111.016 15.56C110.756 15.3067 110.372 15.18 109.866 15.18C109.506 15.18 109.169 15.2433 108.856 15.37C108.549 15.49 108.286 15.6467 108.066 15.84L107.816 15.48C108.076 15.2467 108.389 15.0667 108.756 14.94C109.122 14.8067 109.506 14.74 109.906 14.74C110.552 14.74 111.049 14.9033 111.396 15.23C111.742 15.5567 111.916 16.0433 111.916 16.69V20H111.436ZM109.556 20.04C109.169 20.04 108.832 19.98 108.546 19.86C108.266 19.7333 108.049 19.5567 107.896 19.33C107.749 19.1033 107.676 18.8433 107.676 18.55C107.676 18.2833 107.736 18.0433 107.856 17.83C107.982 17.61 108.189 17.4333 108.476 17.3C108.762 17.16 109.146 17.09 109.626 17.09H111.546V17.48H109.636C109.096 17.48 108.716 17.58 108.496 17.78C108.282 17.98 108.176 18.23 108.176 18.53C108.176 18.8633 108.302 19.13 108.556 19.33C108.809 19.53 109.166 19.63 109.626 19.63C110.066 19.63 110.436 19.53 110.736 19.33C111.042 19.13 111.269 18.84 111.416 18.46L111.556 18.8C111.416 19.18 111.176 19.4833 110.836 19.71C110.502 19.93 110.076 20.04 109.556 20.04ZM113.947 20V14.78H114.447V17.16H117.987V14.78H118.487V20H117.987V17.6H114.447V20H113.947ZM123.906 20V18.81L123.886 18.63V16.67C123.886 16.1833 123.753 15.8133 123.486 15.56C123.226 15.3067 122.843 15.18 122.336 15.18C121.976 15.18 121.64 15.2433 121.326 15.37C121.02 15.49 120.756 15.6467 120.536 15.84L120.286 15.48C120.546 15.2467 120.86 15.0667 121.226 14.94C121.593 14.8067 121.976 14.74 122.376 14.74C123.023 14.74 123.52 14.9033 123.866 15.23C124.213 15.5567 124.386 16.0433 124.386 16.69V20H123.906ZM122.026 20.04C121.64 20.04 121.303 19.98 121.016 19.86C120.736 19.7333 120.52 19.5567 120.366 19.33C120.22 19.1033 120.146 18.8433 120.146 18.55C120.146 18.2833 120.206 18.0433 120.326 17.83C120.453 17.61 120.66 17.4333 120.946 17.3C121.233 17.16 121.616 17.09 122.096 17.09H124.016V17.48H122.106C121.566 17.48 121.186 17.58 120.966 17.78C120.753 17.98 120.646 18.23 120.646 18.53C120.646 18.8633 120.773 19.13 121.026 19.33C121.28 19.53 121.636 19.63 122.096 19.63C122.536 19.63 122.906 19.53 123.206 19.33C123.513 19.13 123.74 18.84 123.886 18.46L124.026 18.8C123.886 19.18 123.646 19.4833 123.306 19.71C122.973 19.93 122.546 20.04 122.026 20.04ZM125.538 20L127.708 17.18L127.698 17.42L125.648 14.78H126.218L128.008 17.09H127.798L129.578 14.78H130.138L128.068 17.45L128.078 17.18L130.278 20H129.688L127.798 17.54L127.988 17.56L126.108 20H125.538Z" fill="#E4E5EA"/>
</svg>
